<svg width="40" height="40" viewBox="0 0 40 40" fill="none" xmlns="http://www.w3.org/2000/svg">
<g clip-path="url(#clip0_1_1641)">
<rect opacity="0.1" x="31.3818" y="0.522461" width="17.2132" height="46.2756" rx="8.60661" transform="rotate(45 31.3818 0.522461)" fill="#2DB398"/>
<path d="M35.4911 4.51789C32.1355 1.16142 26.6727 1.15999 23.3156 4.51789L16.7206 11.1117C16.4401 11.3922 16.4401 11.8456 16.7206 12.1261C17.0011 12.4065 17.4546 12.4065 17.7351 12.1261L24.3301 5.53221C25.679 4.1836 27.4805 3.44115 29.4026 3.44115C31.3262 3.44115 33.127 4.18432 34.4759 5.53293C35.8247 6.88154 36.568 8.6828 36.568 10.6053C36.568 12.5278 35.8247 14.3283 34.4759 15.6769L25.8526 24.3009C23.0559 27.0971 18.5028 27.0971 15.7054 24.3009C15.4248 24.0204 14.9714 24.0204 14.6909 24.3009C14.4103 24.5814 14.4103 25.0347 14.6909 25.3152C16.3698 26.9931 18.5738 27.8324 20.7786 27.8324C22.9834 27.8324 25.1882 26.9931 26.8664 25.3152L35.4911 16.6913C37.1112 15.0715 38.0037 12.9101 38.0037 10.6046C38.0037 8.29902 37.1112 6.13765 35.4911 4.51789Z" fill="#2DB398"/>
<path d="M19.258 30.8941L13.6775 36.4736C12.3286 37.8223 10.5271 38.5654 8.60425 38.5654C6.68142 38.5654 4.88057 37.8223 3.531 36.4736C0.734293 33.6774 0.734293 29.1259 3.531 26.3289L11.6485 18.2129C14.4459 15.4167 18.9983 15.4181 21.795 18.2129C22.0755 18.4934 22.5289 18.4934 22.8095 18.2129C23.09 17.9324 23.09 17.479 22.8095 17.1986C19.4539 13.8421 13.991 13.8407 10.634 17.1986L2.51578 25.3153C0.895725 26.9351 0.00390625 29.0965 0.00390625 31.402C0.00390625 33.7076 0.896442 35.8689 2.51649 37.488C4.13655 39.107 6.29829 40.0001 8.60353 40.0001C10.9102 40.0001 13.0719 39.1077 14.6913 37.488L20.2718 31.9085C20.5523 31.628 20.5523 31.1746 20.2718 30.8941C19.9913 30.6136 19.5385 30.6144 19.258 30.8941Z" fill="#2DB398"/>
<path d="M24.3718 33.5698C23.975 33.5698 23.6543 33.8905 23.6543 34.2872V38.5912C23.6543 38.9879 23.975 39.3086 24.3718 39.3086C24.7685 39.3086 25.0892 38.9879 25.0892 38.5912V34.2872C25.0892 33.8905 24.7685 33.5698 24.3718 33.5698Z" fill="#2DB398"/>
<path d="M27.5745 32.3451C27.294 32.0646 26.8405 32.0646 26.56 32.3451C26.2795 32.6256 26.2795 33.079 26.56 33.3595L29.6042 36.4024C29.7442 36.5423 29.9278 36.6126 30.1115 36.6126C30.2952 36.6126 30.4788 36.5423 30.6188 36.4024C30.8993 36.122 30.8993 35.6686 30.6188 35.3881L27.5745 32.3451Z" fill="#2DB398"/>
<path d="M32.2645 29.2656H27.9597C27.5629 29.2656 27.2422 29.5863 27.2422 29.983C27.2422 30.3797 27.5629 30.7003 27.9597 30.7003H32.2645C32.6613 30.7003 32.982 30.3797 32.982 29.983C32.982 29.5863 32.6613 29.2656 32.2645 29.2656Z" fill="#2DB398"/>
<path d="M11.4577 9.89746C11.8545 9.89746 12.1752 9.57681 12.1752 9.18012V4.87604C12.1752 4.47935 11.8545 4.15869 11.4577 4.15869C11.0609 4.15869 10.7402 4.47935 10.7402 4.87604V9.18012C10.7402 9.57681 11.0617 9.89746 11.4577 9.89746Z" fill="#2DB398"/>
<path d="M8.25392 11.1217C8.39382 11.2616 8.5775 11.3319 8.76117 11.3319C8.94484 11.3319 9.12852 11.2616 9.26842 11.1217C9.54895 10.8412 9.54895 10.3878 9.26842 10.1073L6.2249 7.06437C5.94437 6.78388 5.49093 6.78388 5.2104 7.06437C4.92987 7.34485 4.92987 7.79821 5.2104 8.07869L8.25392 11.1217Z" fill="#2DB398"/>
<path d="M3.56513 14.2013H7.86996C8.26672 14.2013 8.58743 13.8806 8.58743 13.4839C8.58743 13.0873 8.26672 12.7666 7.86996 12.7666H3.56513C3.16837 12.7666 2.84766 13.0873 2.84766 13.4839C2.84766 13.8806 3.16908 14.2013 3.56513 14.2013Z" fill="#2DB398"/>
</g>
<defs>
<clipPath id="clip0_1_1641">
<rect width="40" height="40" fill="white"/>
</clipPath>
</defs>
</svg>
