<svg width="40" height="40" viewBox="0 0 40 40" fill="none" xmlns="http://www.w3.org/2000/svg">
<circle opacity="0.1" cx="23" cy="17" r="17" fill="#F88E11"/>
<path d="M20.0003 2.6665C10.4274 2.6665 2.66699 10.4269 2.66699 19.9998C2.66699 29.5728 10.4274 37.3332 20.0003 37.3332C29.5732 37.3332 37.3337 29.5728 37.3337 19.9998C37.323 10.4313 29.5688 2.67717 20.0003 2.6665ZM20.0003 35.9998C11.1637 35.9998 4.00033 28.8364 4.00033 19.9998C4.00033 11.1633 11.1637 3.99984 20.0003 3.99984C28.8369 3.99984 36.0003 11.1633 36.0003 19.9998C35.9901 28.8321 28.8326 35.9896 20.0003 35.9998Z" fill="#F88E11"/>
<path d="M7.33366 19.3335H4.66699V20.6668H7.33366V19.3335Z" fill="#F88E11"/>
<path d="M35.3337 19.3335H32.667V20.6668H35.3337V19.3335Z" fill="#F88E11"/>
<path d="M8.69632 25.7573L6.38672 27.0903L7.05325 28.2451L9.36285 26.9121L8.69632 25.7573Z" fill="#F88E11"/>
<path d="M32.9463 11.7558L30.6367 13.0889L31.3033 14.2437L33.6129 12.9106L32.9463 11.7558Z" fill="#F88E11"/>
<path d="M7.05423 11.7558L6.3877 12.9106L8.6973 14.2437L9.36383 13.0889L7.05423 11.7558Z" fill="#F88E11"/>
<path d="M31.3042 25.7529L30.6377 26.9077L32.9473 28.2408L33.6138 27.086L31.3042 25.7529Z" fill="#F88E11"/>
<path d="M12.9087 6.38767L11.7539 7.0542L13.087 9.3638L14.2418 8.69726L12.9087 6.38767Z" fill="#F88E11"/>
<path d="M20.6663 4.6665H19.333V7.33317H20.6663V4.6665Z" fill="#F88E11"/>
<path d="M27.0889 6.3867L25.7559 8.69629L26.9107 9.36282L28.2437 7.05323L27.0889 6.3867Z" fill="#F88E11"/>
<path d="M22.8283 9.0304C16.7669 7.46915 10.5876 11.1171 9.02623 17.1785C8.28657 20.0501 8.70182 23.0974 10.1831 25.6664C10.3767 25.9795 10.7877 26.0763 11.1007 25.8826C11.4006 25.6971 11.5042 25.3101 11.3371 24.9997C8.5789 20.2149 10.2219 14.1001 15.0067 11.342C19.7916 8.58382 25.9063 10.2268 28.6645 15.0116C29.9712 17.2786 30.3374 19.9673 29.6845 22.5011C29.5924 22.8578 29.8071 23.2216 30.1638 23.3137C30.5206 23.4058 30.8844 23.1912 30.9765 22.8344V22.8324C32.5377 16.7711 28.8896 10.5917 22.8283 9.0304Z" fill="#F88E11"/>
<path d="M29.7554 24.8175L22.4221 18.8175C22.4021 18.8052 22.3814 18.794 22.3601 18.7841C21.6909 17.4767 20.0885 16.9594 18.7812 17.6286C17.4738 18.2979 16.9564 19.9002 17.6257 21.2075C18.0556 22.0474 18.8983 22.5965 19.8401 22.6508L29.1068 25.9608C29.1794 25.9871 29.2562 26.0005 29.3334 26.0001C29.7016 26 30 25.7015 30 25.3333C29.9999 25.1334 29.9102 24.944 29.7554 24.8175ZM20.0001 21.3335C19.2637 21.3335 18.6668 20.7365 18.6668 20.0001C18.6668 19.2637 19.2637 18.6668 20.0001 18.6668C20.7365 18.6668 21.3334 19.2637 21.3334 20.0001C21.3334 20.7365 20.7365 21.3335 20.0001 21.3335ZM21.8168 21.9415C22.1854 21.5962 22.4477 21.1528 22.5728 20.6635L25.9334 23.4095L21.8168 21.9415Z" fill="#F88E11"/>
</svg>
