<svg width="40" height="40" viewBox="0 0 40 40" fill="none" xmlns="http://www.w3.org/2000/svg">
<rect opacity="0.1" x="4" y="1" width="36" height="29" rx="2" fill="#EA6552"/>
<path d="M35.1277 2.95752H4.87234C3.28849 2.95752 2 4.24609 2 5.82986V28.8086C2 30.3924 3.28849 31.6809 4.87234 31.6809H15.9787V35.8937H11.9574C11.6402 35.8937 11.383 36.1509 11.383 36.4682C11.383 36.7854 11.6402 37.0426 11.9574 37.0426H28.0426C28.3598 37.0426 28.617 36.7854 28.617 36.4682C28.617 36.1509 28.3598 35.8937 28.0426 35.8937H24.0213V31.6809H35.1277C36.7115 31.6809 38 30.3924 38 28.8086V5.82986C38 4.24609 36.7115 2.95752 35.1277 2.95752ZM22.8723 35.8937H17.1277V31.6809H22.8723V35.8937ZM36.8511 28.8086C36.8511 29.7588 36.078 30.532 35.1277 30.532H4.87234C3.92202 30.532 3.14894 29.7588 3.14894 28.8086V27.0852H36.8511V28.8086ZM36.8511 25.9362H3.14894V5.82986C3.14894 4.87961 3.92202 4.10646 4.87234 4.10646H35.1277C36.078 4.10646 36.8511 4.87961 36.8511 5.82986V25.9362Z" fill="#EA6552"/>
<path d="M35.1276 5.25537H4.87232C4.55506 5.25537 4.29785 5.51258 4.29785 5.82984V24.2128C4.29785 24.5301 4.55506 24.7873 4.87232 24.7873H29.7659C30.0832 24.7873 30.3404 24.5301 30.3404 24.2128C30.3404 23.8956 30.0832 23.6383 29.7659 23.6383H5.44679V6.40431H34.5532V23.6383H32.0638C31.7465 23.6383 31.4893 23.8956 31.4893 24.2128C31.4893 24.5301 31.7465 24.7873 32.0638 24.7873H35.1276C35.4449 24.7873 35.7021 24.5301 35.7021 24.2128V5.82984C35.7021 5.51258 35.4449 5.25537 35.1276 5.25537Z" fill="#EA6552"/>
<path d="M24.8696 9H15.1304C13.9556 9 13 9.95564 13 11.1304V17.8261C13 19.0009 13.9556 19.9565 15.1304 19.9565H21.7001L24.6541 22.9111C24.7125 22.969 24.7905 23 24.8696 23C24.9085 23 24.9481 22.9921 24.9859 22.9769C25.0997 22.93 25.1739 22.8186 25.1739 22.6956V19.9352C26.2051 19.7867 27 18.8974 27 17.8261V11.1304C27 9.95564 26.0443 9 24.8696 9ZM26.3913 17.8261C26.3913 18.6655 25.7083 19.3478 24.8696 19.3478C24.7016 19.3478 24.5652 19.4842 24.5652 19.6522V21.9609L22.0415 19.4367C21.9843 19.3801 21.907 19.3478 21.8261 19.3478H15.1304C14.2917 19.3478 13.6087 18.6654 13.6087 17.8261V11.1304C13.6087 10.291 14.2917 9.60871 15.1304 9.60871H24.8696C25.7083 9.60871 26.3913 10.2911 26.3913 11.1304V17.8261Z" fill="#EA6552"/>
<path d="M20 16.3042C19.4966 16.3042 19.0869 16.7138 19.0869 17.2172C19.0869 17.7206 19.4966 18.1303 20 18.1303C20.5034 18.1303 20.913 17.7206 20.913 17.2172C20.913 16.7138 20.5034 16.3042 20 16.3042ZM20 17.5216C19.832 17.5216 19.6956 17.3846 19.6956 17.2172C19.6956 17.0498 19.832 16.9129 20 16.9129C20.168 16.9129 20.3043 17.0498 20.3043 17.2172C20.3043 17.3846 20.168 17.5216 20 17.5216Z" fill="#EA6552"/>
<path d="M20.9731 11.1171C20.8008 10.9321 20.5573 10.8262 20.3047 10.8262H19.696C19.4434 10.8262 19.2006 10.9321 19.0283 11.1171C18.856 11.3016 18.7678 11.5517 18.7854 11.8086L19.0429 14.8076C19.0782 15.3056 19.497 15.6957 20.0004 15.6957C20.4995 15.6957 20.9183 15.3055 20.953 14.8125L21.2154 11.8043C21.2336 11.5524 21.1453 11.3022 20.9731 11.1171ZM20.6091 11.7562L20.3461 14.765C20.3333 14.9458 20.1812 15.087 19.9955 15.087C19.8141 15.087 19.6626 14.9458 19.6492 14.7602L19.3923 11.7611C19.3862 11.6753 19.4148 11.5937 19.4732 11.5316C19.5317 11.4696 19.6108 11.4349 19.696 11.4349H20.3047C20.39 11.4349 20.4691 11.4696 20.5275 11.5316C20.586 11.5937 20.6146 11.6753 20.6091 11.7562Z" fill="#EA6552"/>
</svg>
