<svg width="40" height="40" viewBox="0 0 40 40" fill="none" xmlns="http://www.w3.org/2000/svg">
<rect opacity="0.1" x="4" y="1" width="36" height="29" rx="2" fill="#2DB398"/>
<path d="M35.1277 2.95752H4.87234C3.28849 2.95752 2 4.24609 2 5.82986V28.8086C2 30.3924 3.28849 31.6809 4.87234 31.6809H15.9787V35.8937H11.9574C11.6402 35.8937 11.383 36.1509 11.383 36.4682C11.383 36.7854 11.6402 37.0426 11.9574 37.0426H28.0426C28.3598 37.0426 28.617 36.7854 28.617 36.4682C28.617 36.1509 28.3598 35.8937 28.0426 35.8937H24.0213V31.6809H35.1277C36.7115 31.6809 38 30.3924 38 28.8086V5.82986C38 4.24609 36.7115 2.95752 35.1277 2.95752ZM22.8723 35.8937H17.1277V31.6809H22.8723V35.8937ZM36.8511 28.8086C36.8511 29.7588 36.078 30.532 35.1277 30.532H4.87234C3.92202 30.532 3.14894 29.7588 3.14894 28.8086V27.0852H36.8511V28.8086ZM36.8511 25.9362H3.14894V5.82986C3.14894 4.87961 3.92202 4.10646 4.87234 4.10646H35.1277C36.078 4.10646 36.8511 4.87961 36.8511 5.82986V25.9362Z" fill="#2DB398"/>
<path d="M35.1276 5.25537H4.87232C4.55506 5.25537 4.29785 5.51258 4.29785 5.82984V24.2128C4.29785 24.5301 4.55506 24.7873 4.87232 24.7873H29.7659C30.0832 24.7873 30.3404 24.5301 30.3404 24.2128C30.3404 23.8956 30.0832 23.6383 29.7659 23.6383H5.44679V6.40431H34.5532V23.6383H32.0638C31.7465 23.6383 31.4893 23.8956 31.4893 24.2128C31.4893 24.5301 31.7465 24.7873 32.0638 24.7873H35.1276C35.4449 24.7873 35.7021 24.5301 35.7021 24.2128V5.82984C35.7021 5.51258 35.4449 5.25537 35.1276 5.25537Z" fill="#2DB398"/>
<path d="M18.6154 15.3845H14V10.7692C14 10.5144 13.7932 10.3076 13.5385 10.3076C10.4845 10.3076 8 12.7921 8 15.8461C8 18.9001 10.4845 21.3845 13.5385 21.3845C16.5925 21.3845 19.0769 18.9001 19.0769 15.8461C19.0769 15.5913 18.8701 15.3845 18.6154 15.3845ZM13.5385 20.4615C10.9935 20.4615 8.92308 18.391 8.92308 15.8461C8.92308 13.4572 10.748 11.4859 13.0769 11.2538V15.8461C13.0769 16.1008 13.2837 16.3076 13.5385 16.3076H18.1308C17.8986 18.6365 15.9274 20.4615 13.5385 20.4615Z" fill="#2DB398"/>
<path d="M15.3844 8.46143C15.1296 8.46143 14.9229 8.66819 14.9229 8.92296V13.9999C14.9229 14.2547 15.1296 14.4614 15.3844 14.4614H20.4613C20.7161 14.4614 20.9229 14.2547 20.9229 13.9999C20.9229 10.9459 18.4384 8.46143 15.3844 8.46143ZM15.8459 13.5383V9.40758C18.023 9.6245 19.7598 11.3613 19.9767 13.5383H15.8459Z" fill="#2DB398"/>
<path d="M31.538 8H22.3072C22.0525 8 21.8457 8.20677 21.8457 8.46154V20.9231C21.8457 21.1778 22.0525 21.3846 22.3072 21.3846H31.538C31.7928 21.3846 31.9995 21.1778 31.9995 20.9231V8.46154C31.9995 8.20677 31.7928 8 31.538 8ZM31.0765 20.4615H22.7688V8.92308H31.0765V20.4615Z" fill="#2DB398"/>
<path d="M26.9232 10.3076H24.1539C23.8992 10.3076 23.6924 10.5144 23.6924 10.7692C23.6924 11.0239 23.8992 11.2307 24.1539 11.2307H26.9232C27.1779 11.2307 27.3847 11.0239 27.3847 10.7692C27.3847 10.5144 27.1779 10.3076 26.9232 10.3076Z" fill="#2DB398"/>
<path d="M29.6924 12.1538H24.1539C23.8992 12.1538 23.6924 12.3606 23.6924 12.6153C23.6924 12.8701 23.8992 13.0769 24.1539 13.0769H29.6924C29.9472 13.0769 30.1539 12.8701 30.1539 12.6153C30.1539 12.3606 29.9472 12.1538 29.6924 12.1538Z" fill="#2DB398"/>
<path d="M26.9232 14H24.1539C23.8992 14 23.6924 14.2068 23.6924 14.4615C23.6924 14.7163 23.8992 14.9231 24.1539 14.9231H26.9232C27.1779 14.9231 27.3847 14.7163 27.3847 14.4615C27.3847 14.2068 27.1779 14 26.9232 14Z" fill="#2DB398"/>
<path d="M29.6924 15.8462H24.1539C23.8992 15.8462 23.6924 16.053 23.6924 16.3077C23.6924 16.5625 23.8992 16.7693 24.1539 16.7693H29.6924C29.9472 16.7693 30.1539 16.5625 30.1539 16.3077C30.1539 16.053 29.9472 15.8462 29.6924 15.8462Z" fill="#2DB398"/>
<path d="M26.9232 17.6924H24.1539C23.8992 17.6924 23.6924 17.8992 23.6924 18.1539C23.6924 18.4087 23.8992 18.6155 24.1539 18.6155H26.9232C27.1779 18.6155 27.3847 18.4087 27.3847 18.1539C27.3847 17.8992 27.1779 17.6924 26.9232 17.6924Z" fill="#2DB398"/>
</svg>
