<svg width="40" height="40" viewBox="0 0 40 40" fill="none" xmlns="http://www.w3.org/2000/svg">
<rect opacity="0.1" x="4" y="1" width="36" height="29" rx="2" fill="#2DB398"/>
<path d="M35.1277 2.95752H4.87234C3.28849 2.95752 2 4.24609 2 5.82986V28.8086C2 30.3924 3.28849 31.6809 4.87234 31.6809H15.9787V35.8937H11.9574C11.6402 35.8937 11.383 36.1509 11.383 36.4682C11.383 36.7854 11.6402 37.0426 11.9574 37.0426H28.0426C28.3598 37.0426 28.617 36.7854 28.617 36.4682C28.617 36.1509 28.3598 35.8937 28.0426 35.8937H24.0213V31.6809H35.1277C36.7115 31.6809 38 30.3924 38 28.8086V5.82986C38 4.24609 36.7115 2.95752 35.1277 2.95752ZM22.8723 35.8937H17.1277V31.6809H22.8723V35.8937ZM36.8511 28.8086C36.8511 29.7588 36.078 30.532 35.1277 30.532H4.87234C3.92202 30.532 3.14894 29.7588 3.14894 28.8086V27.0852H36.8511V28.8086ZM36.8511 25.9362H3.14894V5.82986C3.14894 4.87961 3.92202 4.10646 4.87234 4.10646H35.1277C36.078 4.10646 36.8511 4.87961 36.8511 5.82986V25.9362Z" fill="#2DB398"/>
<path d="M35.1276 5.25537H4.87232C4.55506 5.25537 4.29785 5.51258 4.29785 5.82984V24.2128C4.29785 24.5301 4.55506 24.7873 4.87232 24.7873H29.7659C30.0832 24.7873 30.3404 24.5301 30.3404 24.2128C30.3404 23.8956 30.0832 23.6383 29.7659 23.6383H5.44679V6.40431H34.5532V23.6383H32.0638C31.7465 23.6383 31.4893 23.8956 31.4893 24.2128C31.4893 24.5301 31.7465 24.7873 32.0638 24.7873H35.1276C35.4449 24.7873 35.7021 24.5301 35.7021 24.2128V5.82984C35.7021 5.51258 35.4449 5.25537 35.1276 5.25537Z" fill="#2DB398"/>
</svg>
