<svg width="40" height="40" viewBox="0 0 40 40" fill="none" xmlns="http://www.w3.org/2000/svg">
<circle opacity="0.1" cx="22.5" cy="17.5" r="14.5" fill="#2DB398"/>
<path d="M39.4141 14.9811H34.18C33.1863 12.1682 31.3983 9.7407 28.9878 7.94133C26.4121 6.01859 23.348 4.98852 20.1334 4.96258C20.0948 4.9618 20.0549 4.96148 20.0159 4.96141C20.0105 4.96133 20.0053 4.96094 20 4.96094C19.9949 4.96094 19.99 4.96133 19.9849 4.96141C19.9454 4.96148 19.9072 4.9618 19.8734 4.9625C19.8713 4.9625 19.8691 4.96258 19.867 4.96258C19.8669 4.96258 19.8669 4.96258 19.8668 4.96258H19.8667C16.6478 4.99 13.5861 6.01992 11.0122 7.94133C8.60172 9.74078 6.81367 12.1682 5.82 14.9811H0.585938C0.262344 14.9811 0 15.2434 0 15.567V24.0436C0 24.3672 0.262344 24.6295 0.585938 24.6295H5.68906C6.26406 26.4047 7.17727 28.0671 8.35953 29.515C8.37086 29.5301 8.38273 29.5445 8.39531 29.5584C9.13117 30.4528 9.96937 31.265 10.8944 31.9698C13.5298 33.9777 16.6784 35.039 20 35.039C22.7754 35.039 25.4873 34.2766 27.8425 32.8345C28.1185 32.6655 28.2052 32.3048 28.0362 32.0287C27.8672 31.7527 27.5064 31.666 27.2305 31.8351C26.5821 32.2321 25.9038 32.572 25.2038 32.8552C26.344 31.813 27.3466 30.4238 28.1417 28.7433C28.8952 28.9384 29.584 29.1556 30.2012 29.3926C29.8538 29.7693 29.4849 30.1287 29.0945 30.4681C28.8504 30.6805 28.8245 31.0506 29.0369 31.2948C29.1527 31.428 29.3155 31.4963 29.4793 31.4963C29.6156 31.4963 29.7527 31.449 29.8635 31.3525C31.9411 29.5459 33.4721 27.2287 34.3113 24.6295H39.4141C39.7377 24.6295 40 24.3672 40 24.0436V15.567C40 15.2434 39.7377 14.9811 39.4141 14.9811ZM31.0004 11.5496C31.802 12.5906 32.4518 13.7427 32.9312 14.9811H29.4265C29.2127 14.0645 28.9388 13.1823 28.6104 12.3448C29.4928 12.1094 30.2931 11.8432 31.0004 11.5496ZM28.2868 8.88039C28.9841 9.40094 29.6245 9.97875 30.204 10.6062C29.5859 10.8437 28.8961 11.0613 28.1417 11.2566C27.3441 9.57164 26.3352 8.17789 25.1876 7.13336C26.2814 7.57508 27.3213 8.15969 28.2868 8.88039ZM28.22 14.9811H23.3145C23.2709 14.3892 23.2195 13.8098 23.1605 13.2484C23.2496 13.2413 23.3388 13.2345 23.4276 13.2268C24.853 13.0978 26.2066 12.8946 27.4609 12.6223C27.7627 13.3707 28.0162 14.1605 28.22 14.9811ZM19.9947 6.13406C19.9983 6.13406 20.0019 6.13406 20.0055 6.13406C20.0543 6.14969 20.4298 6.31625 20.9032 7.68148C21.0092 7.98727 21.343 8.14914 21.6488 8.04305C21.9545 7.93703 22.1164 7.6032 22.0103 7.2975C21.8903 6.95133 21.7648 6.64445 21.6334 6.37617C23.7318 7.00461 25.6384 8.82852 26.9714 11.5273C25.8323 11.7639 24.6094 11.9432 23.3241 12.0595C23.2245 12.0681 23.1235 12.0743 23.0234 12.0822C22.9125 11.2305 22.7838 10.4338 22.6393 9.7093C22.5759 9.39195 22.2672 9.18602 21.9501 9.2493C21.6327 9.31266 21.4268 9.62117 21.4901 9.93852C21.6252 10.6155 21.746 11.3598 21.8513 12.1561C20.6225 12.2141 19.3762 12.214 18.1488 12.1561C18.3897 10.3323 18.7113 8.80406 19.0866 7.71109C19.5646 6.3193 19.9454 6.14992 19.9947 6.13406ZM22.1395 14.9811H17.8605C17.903 14.4147 17.953 13.8607 18.01 13.324C18.6702 13.3567 19.3355 13.3738 20 13.3738C20.6644 13.3738 21.3295 13.3567 21.99 13.324C22.047 13.8607 22.097 14.4147 22.1395 14.9811ZM18.3668 6.37617C18.2313 6.65305 18.1018 6.97078 17.9783 7.33063C17.5728 8.51141 17.229 10.1463 16.9766 12.0822C16.8773 12.0744 16.777 12.0683 16.678 12.0597C15.3908 11.9432 14.1673 11.7639 13.0286 11.5274C14.3616 8.82867 16.2682 7.00461 18.3668 6.37617ZM16.8395 13.2485C16.7805 13.8098 16.729 14.3893 16.6855 14.9811H11.78C11.9838 14.1606 12.2373 13.3706 12.5391 12.6223C13.7928 12.8945 15.147 13.0978 16.5746 13.227C16.6627 13.2348 16.7512 13.2415 16.8395 13.2485ZM11.7132 8.88039C12.6784 8.15984 13.718 7.57539 14.8121 7.13367C13.6647 8.1782 12.6559 9.5718 11.8584 11.2566C11.1037 11.0612 10.414 10.8436 9.79609 10.6062C10.3755 9.97875 11.0159 9.40094 11.7132 8.88039ZM8.99953 11.5496C9.70672 11.8431 10.5069 12.1093 11.3895 12.3447C11.0612 13.1823 10.7872 14.0645 10.5734 14.9811H7.06867C7.54812 13.7428 8.19797 12.5907 8.99953 11.5496ZM1.17188 23.4577V16.153H8.28641C8.28898 16.153 8.28641 16.153 8.28898 16.153V23.4577H1.17188ZM9.00781 28.4468C8.12 27.2913 7.41297 26.0001 6.92602 24.6295H10.4873C10.7124 25.6869 11.0152 26.6999 11.3896 27.655C10.5105 27.8895 9.71313 28.1546 9.00781 28.4468ZM11.6045 31.0376C10.9552 30.5428 10.3522 29.9907 9.80172 29.3916C10.4183 29.1549 11.1062 28.938 11.8583 28.7433C12.6562 30.4298 13.6631 31.8226 14.8082 32.866C13.6752 32.4078 12.6 31.7961 11.6045 31.0376ZM13.0285 28.4725C14.1677 28.2359 15.3905 28.0566 16.6758 27.9404C16.7755 27.9317 16.8765 27.9255 16.9766 27.9177C17.2289 29.8535 17.5728 31.4885 17.9782 32.6692C18.102 33.0296 18.2316 33.3478 18.3674 33.625C16.2677 32.998 14.3637 31.1771 13.0285 28.4725ZM17.8326 24.6295H22.1675C22.1192 25.3315 22.0598 26.0161 21.9898 26.676C20.6708 26.611 19.3308 26.6109 18.0102 26.676C17.9402 26.016 17.8808 25.3314 17.8326 24.6295ZM20 33.8671C19.9963 33.8671 19.5967 33.7744 19.0866 32.2886C18.7113 31.1956 18.3897 29.6673 18.1488 27.8436C19.3775 27.7856 20.6238 27.7857 21.8512 27.8436C21.6103 29.6673 21.2887 31.1956 20.9134 32.2886C20.4033 33.7744 20.0037 33.8671 20 33.8671ZM21.6326 33.625C21.7684 33.3478 21.898 33.0297 22.0218 32.6692C22.4273 31.4885 22.7711 29.8536 23.0234 27.9177C23.1228 27.9255 23.2231 27.9316 23.322 27.9402C24.6093 28.0566 25.8327 28.2359 26.9715 28.4724C25.6364 31.177 23.7323 32.998 21.6326 33.625ZM27.4613 27.3777C26.2074 27.1053 24.8532 26.902 23.4254 26.7728C23.3373 26.7652 23.2487 26.7584 23.1602 26.7513C23.2322 26.0666 23.293 25.3569 23.3421 24.6295H28.3121C28.0945 25.5909 27.8105 26.5118 27.4613 27.3777ZM30.9958 28.4483C30.2898 28.1555 29.4912 27.89 28.6104 27.6551C28.9849 26.6998 29.2876 25.6868 29.5127 24.6295H33.0727C32.5853 26.0079 31.8843 27.2943 30.9958 28.4483ZM38.8281 16.153V23.4577H15C14.6764 23.4577 14.4141 23.72 14.4141 24.0436C14.4141 24.3672 14.6764 24.6295 15 24.6295H16.6579C16.707 25.3568 16.7678 26.0666 16.8398 26.7513C16.7505 26.7584 16.6612 26.7653 16.5724 26.773C15.1469 26.902 13.7931 27.1052 12.5387 27.3776C12.1895 26.5118 11.9055 25.5909 11.6878 24.6295H12.5C12.8236 24.6295 13.0859 24.3671 13.0859 24.0435C13.0859 23.7199 12.8236 23.4576 12.5 23.4576H9.46086V16.1529L38.8281 16.153C38.8292 16.153 38.8286 16.153 38.8281 16.153Z" fill="#2DB398"/>
<path d="M7.70597 18.6703C7.61152 18.3792 7.36465 18.1711 7.06183 18.1271L5.94527 17.9649L5.44597 16.9532C5.31058 16.6788 5.03629 16.5083 4.73019 16.5083C4.42418 16.5083 4.14996 16.6788 4.01465 16.9531L3.51527 17.9649L2.39871 18.1271C2.09597 18.1711 1.8491 18.3793 1.75449 18.6703C1.65996 18.9613 1.7373 19.2747 1.95636 19.4884L2.76433 20.276L2.57363 21.3879C2.52191 21.6895 2.64363 21.9886 2.89113 22.1685C3.13871 22.3483 3.46082 22.3716 3.7316 22.2292L4.73027 21.7042L5.72886 22.2292C5.84668 22.2911 5.97418 22.3217 6.10105 22.3217C6.26582 22.3217 6.42949 22.2701 6.56941 22.1685C6.81699 21.9885 6.93863 21.6895 6.88683 21.3879L6.69613 20.2759L7.50394 19.4884C7.72308 19.2748 7.8005 18.9613 7.70597 18.6703ZM5.73761 19.5738C5.54933 19.7572 5.46347 20.0213 5.508 20.2803L5.60394 20.8395L5.10183 20.5755C4.86918 20.4532 4.59152 20.4532 4.35902 20.5755L3.85683 20.8395L3.95277 20.2802C3.99707 20.0212 3.91121 19.7571 3.72324 19.5739L3.31691 19.1779L3.87832 19.0963C4.1384 19.0586 4.36308 18.8953 4.47925 18.6598L4.73035 18.151L4.98136 18.6597C5.09761 18.8954 5.3223 19.0586 5.5823 19.0963L6.14379 19.1779L5.73761 19.5738Z" fill="#2DB398"/>
<path d="M20.0548 18.0034C19.7663 17.8571 19.4136 17.9724 19.2673 18.2611L18.4733 19.8271L17.7037 18.309C17.6912 18.2782 17.6762 18.2482 17.6584 18.2193C17.5519 18.0458 17.3604 17.94 17.1567 17.94C16.953 17.94 16.764 18.0458 16.6574 18.2193C16.6362 18.2537 16.619 18.2898 16.6055 18.327L15.8451 19.8272L15.0511 18.2611C14.9047 17.9725 14.552 17.8573 14.2635 18.0035C13.9748 18.1498 13.8595 18.5024 14.0058 18.7911L15.3224 21.388C15.4222 21.585 15.6243 21.709 15.845 21.709C16.0657 21.709 16.2678 21.585 16.3676 21.388L17.159 19.8268L17.9505 21.388C18.0504 21.585 18.2524 21.709 18.4731 21.709C18.6938 21.709 18.8959 21.585 18.9957 21.388L20.3123 18.7911C20.4588 18.5024 20.3435 18.1497 20.0548 18.0034Z" fill="#2DB398"/>
<path d="M26.8341 18.0034C26.5456 17.8571 26.1929 17.9724 26.0465 18.2611L25.2526 19.8271L24.4829 18.309C24.4705 18.2782 24.4554 18.2482 24.4377 18.2193C24.3311 18.0458 24.1397 17.94 23.936 17.94C23.7323 17.94 23.5433 18.0458 23.4367 18.2193C23.4155 18.2537 23.3983 18.2898 23.3848 18.327L22.6244 19.8272L21.8304 18.2611C21.684 17.9725 21.3312 17.8573 21.0428 18.0035C20.7541 18.1498 20.6388 18.5024 20.7851 18.7911L22.1017 21.388C22.2015 21.585 22.4036 21.709 22.6243 21.709C22.845 21.709 23.0471 21.585 23.1469 21.388L23.9383 19.8268L24.7298 21.388C24.8297 21.585 25.0317 21.709 25.2524 21.709C25.4731 21.709 25.6752 21.585 25.775 21.388L27.0915 18.7911C27.2382 18.5024 27.1228 18.1497 26.8341 18.0034Z" fill="#2DB398"/>
<path d="M33.6134 18.0034C33.3249 17.8571 32.9722 17.9724 32.8258 18.2611L32.0319 19.8271L31.2622 18.309C31.2498 18.2782 31.2347 18.2482 31.217 18.2193C31.1104 18.0458 30.919 17.94 30.7153 17.94C30.5116 17.94 30.3226 18.0458 30.216 18.2193C30.1948 18.2537 30.1776 18.2898 30.1641 18.3269L29.4036 19.8271L28.6097 18.2611C28.4633 17.9724 28.1108 17.8571 27.8221 18.0034C27.5334 18.1497 27.4181 18.5023 27.5644 18.791L28.881 21.3879C28.9808 21.5849 29.1829 21.709 29.4036 21.709C29.6243 21.709 29.8264 21.5849 29.9262 21.3879L30.7176 19.8268L31.5091 21.3879C31.609 21.5849 31.811 21.709 32.0317 21.709C32.2524 21.709 32.4545 21.5849 32.5543 21.3879L33.8708 18.791C34.0175 18.5024 33.9021 18.1497 33.6134 18.0034Z" fill="#2DB398"/>
</svg>
