<svg width="40" height="40" viewBox="0 0 40 40" fill="none" xmlns="http://www.w3.org/2000/svg">
<path opacity="0.1" d="M21.805 0.869761C18.8372 2.6343 12.3333 4.8618 8.23413 6.12644C7.48258 6.3583 6.92657 7.01091 6.8408 7.79271C4.61655 28.0654 16.6738 36.4136 22.3793 38.3116C22.7813 38.4453 23.221 38.4181 23.6134 38.2585C38.2386 32.3114 40.3384 17.6712 39.3994 9.06347C39.2572 7.75909 37.7169 6.55913 36.4644 6.1682C33.2486 5.1645 27.9169 2.57293 24.3107 0.692437C23.529 0.28479 22.5628 0.419196 21.805 0.869761Z" fill="#2DB398"/>
<path d="M35.4744 7.49079C30.3026 6.07371 25.1005 3.8672 20.4302 1.10985C20.1822 0.963384 19.8743 0.963384 19.6263 1.10985C14.8214 3.94642 9.90036 6.03356 4.58175 7.49079C4.23816 7.58483 4 7.89714 4 8.25343V16.3326C4 24.6523 7.83811 30.1593 11.058 33.3141C14.5244 36.7107 18.5623 38.589 20.0283 38.589C21.4942 38.589 25.5321 36.7107 28.9985 33.3141C32.2183 30.1594 36.0562 24.6523 36.0562 16.3326V8.25336C36.0562 7.89714 35.818 7.58483 35.4744 7.49079ZM34.4748 16.3325C34.4748 24.103 30.8949 29.2418 27.8916 32.1844C24.4829 35.5245 20.8383 37.0075 20.0283 37.0075C19.2183 37.0075 15.5735 35.5245 12.1646 32.1844C9.16143 29.2417 5.58145 24.103 5.58145 16.3325V8.85361C10.6676 7.40952 15.4042 5.39418 20.0284 2.70694C24.5372 5.32289 29.5102 7.43844 34.4748 8.85331V16.3325Z" fill="#2DB398"/>
<path d="M13.0196 8.76529C12.8596 8.35893 12.4005 8.15931 11.9941 8.31943C10.5816 8.876 9.13174 9.38829 7.68493 9.84215C7.35522 9.94567 7.13086 10.2511 7.13086 10.5966V13.65C7.13086 14.0867 7.48494 14.4407 7.92155 14.4407C8.35815 14.4407 8.71224 14.0867 8.71224 13.65V11.1744C10.0102 10.7545 11.3067 10.29 12.5738 9.79069C12.9801 9.63071 13.1797 9.17164 13.0196 8.76529Z" fill="#2DB398"/>
<path d="M14.522 8.91541C14.6281 8.91541 14.7358 8.89404 14.8391 8.84897L14.8536 8.84265C15.2536 8.66734 15.4338 8.20166 15.2585 7.80176C15.083 7.40172 14.6147 7.22075 14.2151 7.39592L14.2023 7.40143C13.8021 7.57623 13.6213 8.04154 13.7961 8.44166C13.9259 8.7387 14.2169 8.91541 14.522 8.91541Z" fill="#2DB398"/>
<path d="M29.449 26.4965C29.0836 26.2577 28.5936 26.3604 28.3545 26.7259C27.7029 27.7232 26.9385 28.6782 26.0822 29.5641C25.378 30.2926 24.6149 30.9715 23.8142 31.582C23.467 31.8467 23.4002 32.3428 23.6648 32.6902C23.8205 32.8942 24.056 33.0015 24.2942 33.0015C24.4614 33.0015 24.6299 32.9487 24.773 32.8395C25.6368 32.1809 26.4598 31.4487 27.219 30.6633C28.1449 29.7057 28.9723 28.672 29.6784 27.5909C29.9174 27.2253 29.8145 26.7353 29.449 26.4965Z" fill="#2DB398"/>
<path d="M21.9782 32.8218L21.9328 32.8485C21.5549 33.0674 21.4258 33.5511 21.6446 33.9289C21.7912 34.1822 22.0566 34.3236 22.3296 34.3236C22.464 34.3236 22.6004 34.2893 22.7249 34.217L22.7773 34.1862C23.1541 33.9656 23.2807 33.4812 23.06 33.1044C22.8392 32.7277 22.3548 32.6013 21.9782 32.8218Z" fill="#2DB398"/>
</svg>
