<svg width="40" height="40" viewBox="0 0 40 40" fill="none" xmlns="http://www.w3.org/2000/svg">
<rect opacity="0.1" x="10.667" width="22" height="38.6667" rx="2" fill="#2DB398"/>
<path d="M28.2893 1.56885H12.1545C10.5993 1.56885 9.33301 2.83516 9.33301 4.39035V37.1781C9.33301 38.7339 10.5993 40.0002 12.1545 40.0002H28.2886C29.8445 40.0002 31.1108 38.7339 31.1108 37.1787V4.39035C31.1108 2.83516 29.8445 1.56885 28.2893 1.56885ZM10.6141 6.69303H29.8297V31.0329H10.6141V6.69303ZM12.1545 2.84989H28.2886C29.1386 2.84989 29.8297 3.54102 29.8297 4.39035V5.41198H10.6141V4.39035C10.6141 3.54102 11.3052 2.84989 12.1545 2.84989ZM28.2893 38.7192H12.1545C11.3052 38.7192 10.6141 38.028 10.6141 37.1787V32.3139H29.8297V37.1787C29.8297 38.028 29.1386 38.7192 28.2893 38.7192Z" fill="#2DB398"/>
<path d="M20.2222 32.9546C18.8093 32.9546 17.6602 34.1037 17.6602 35.5167C17.6602 36.9297 18.8093 38.0788 20.2222 38.0788C21.6352 38.0788 22.7843 36.9297 22.7843 35.5167C22.7843 34.1037 21.6352 32.9546 20.2222 32.9546ZM20.2222 36.7977C19.5158 36.7977 18.9412 36.2232 18.9412 35.5167C18.9412 34.8102 19.5158 34.2356 20.2222 34.2356C20.9287 34.2356 21.5033 34.8102 21.5033 35.5167C21.5033 36.2232 20.9287 36.7977 20.2222 36.7977Z" fill="#2DB398"/>
<path d="M17.6601 4.77128H20.2221C20.5764 4.77128 20.8627 4.48497 20.8627 4.13076C20.8627 3.77655 20.5764 3.49023 20.2221 3.49023H17.6601C17.3058 3.49023 17.0195 3.77655 17.0195 4.13076C17.0195 4.48497 17.3058 4.77128 17.6601 4.77128Z" fill="#2DB398"/>
<path d="M22.1435 4.77128H22.784C23.1382 4.77128 23.4245 4.48497 23.4245 4.13076C23.4245 3.77655 23.1382 3.49023 22.784 3.49023H22.1435C21.7892 3.49023 21.5029 3.77655 21.5029 4.13076C21.5029 4.48497 21.7892 4.77128 22.1435 4.77128Z" fill="#2DB398"/>
</svg>
