<svg width="40" height="40" viewBox="0 0 40 40" fill="none" xmlns="http://www.w3.org/2000/svg">
<path d="M33.7613 33.9438L33.137 33.6935C36.2766 30.2009 38 25.7148 38 21C38 17.1428 36.8339 13.4314 34.7092 10.3115C34.6835 10.2608 34.6515 10.2151 34.6144 10.1753C33.6837 8.83377 32.5756 7.60337 31.3041 6.52178C31.0517 6.30706 30.6731 6.33764 30.4584 6.59006C30.2437 6.84248 30.2743 7.22121 30.5266 7.43586C31.5467 8.30355 32.4546 9.27344 33.2422 10.3231C31.9722 10.8195 30.4477 11.2399 28.7459 11.572C28.2761 10.1722 27.6987 8.86716 27.0199 7.68968C26.105 6.10252 25.0526 4.82447 23.9057 3.88449C25.6907 4.39482 27.3912 5.18554 28.9516 6.23967C29.2262 6.425 29.5991 6.35293 29.7847 6.07832C29.9701 5.80379 29.8979 5.43084 29.6233 5.24529C26.481 3.12219 22.8074 2 19 2C13.9248 2 9.15362 3.9763 5.56507 7.56507C1.9763 11.1536 0 15.925 0 21C0 25.7209 1.72573 30.2076 4.87053 33.7014L4.25407 33.9429C4.02704 34.0249 2.09653 34.7949 2.09653 37.2495V39.3994C2.09653 39.7309 2.36505 40 2.69652 40H6.14798H6.68525H7.32524H10.3951H11.5281C11.557 40 11.5853 39.9973 11.6132 39.9932C11.6411 39.9973 11.6693 40 11.6982 40H14.1396C14.471 40 14.7395 39.7315 14.7395 39.4C14.7395 39.0686 14.4709 38.8 14.1396 38.8H12.2982V36.7104C12.2982 34.5058 14.0299 33.8717 14.0998 33.847C14.1091 33.8439 14.1183 33.8406 14.1275 33.8369L17.0493 32.6926C17.0556 32.6995 17.0616 32.7066 17.0682 32.7131L18.621 34.2256C18.7332 34.3347 18.8835 34.3957 19.0397 34.3957C19.0428 34.3957 19.046 34.3957 19.0491 34.3957C19.2088 34.3932 19.361 34.3271 19.4717 34.2121L20.9626 32.665L23.8806 33.8352C23.8912 33.8395 23.8981 33.8421 23.909 33.8457C23.9827 33.8716 25.7146 34.506 25.7146 36.7104V38.8H21.326H16.6865H16.0148C15.6833 38.8 15.4148 39.0686 15.4148 39.4C15.4148 39.7315 15.6834 40 16.0148 40H16.6865H21.326H26.3146H26.3147H26.3148H27.0803H27.6175H28.2576H31.3273H35.3162C35.6476 40 35.9162 39.7272 35.9162 39.3958V37.2495C35.9163 34.8043 34.0004 34.0307 33.7613 33.9438ZM31.9458 33.2158L31.3544 32.9786V32.6372C32.008 32.2539 32.5104 31.6399 32.7491 30.9075C33.622 30.8385 34.3115 30.1077 34.3115 29.2174C34.3115 28.6879 34.0674 28.2147 33.6863 27.9032V26.8368C33.6863 24.7808 32.1435 23.0795 30.155 22.827C30.1776 22.4202 30.1933 22.0103 30.2009 21.6H36.7889C36.6447 25.943 34.9387 30.0453 31.9458 33.2158ZM29.7797 31.8651H29.2325C28.1722 31.8651 27.3098 31.0026 27.3098 29.9425V28.355C28.0914 28.2702 29.4758 27.997 30.5424 27.1062C30.7813 27.516 31.1509 27.9591 31.7024 28.2179V29.9425C31.7023 31.0026 30.8398 31.8651 29.7797 31.8651ZM30.1545 33.0418V33.3744L29.4859 34.0681L28.8577 33.4563V33.0417C28.9807 33.0565 29.1056 33.065 29.2325 33.065H29.7798C29.9067 33.0651 30.0314 33.0565 30.1545 33.0418ZM26.7117 27.194C26.711 27.194 26.7104 27.194 26.7097 27.194C26.6891 27.194 26.6686 27.1951 26.6485 27.1971C26.642 27.1978 26.6357 27.1991 26.6292 27.2C26.6157 27.2018 26.6022 27.2034 26.589 27.2062C26.58 27.208 26.5713 27.2107 26.5624 27.213C26.5521 27.2156 26.5417 27.2178 26.5316 27.2209C26.5251 27.2229 26.519 27.2257 26.5125 27.2279V26.8369C26.5125 25.2689 27.7881 23.9934 29.356 23.9934H29.643C31.2108 23.9934 32.4862 25.2689 32.4862 26.8369V27.223C32.4749 27.2194 32.4635 27.2166 32.4519 27.2137C32.4464 27.2121 32.4409 27.2103 32.4354 27.2089C31.5989 27.0187 31.3254 25.9024 31.3234 25.8939C31.2713 25.664 31.0894 25.4859 30.8584 25.4387C30.6273 25.3913 30.3902 25.4838 30.252 25.6748C29.1655 27.1768 26.7435 27.194 26.7117 27.194ZM32.9023 29.6218V28.8132C33.0286 28.9034 33.1114 29.0509 33.1114 29.2176C33.1114 29.3843 33.0286 29.5316 32.9023 29.6218ZM33.9464 11.3329C35.6844 14.0178 36.6796 17.1434 36.7887 20.3999H30.2006C30.1519 17.6992 29.7745 15.0943 29.1015 12.7221C30.9463 12.3557 32.591 11.8874 33.9464 11.3329ZM29.0005 20.4001H22.8595C22.8589 20.4 22.8583 20.4001 22.8577 20.4001C22.0391 19.4952 20.8884 18.8974 19.6 18.7979V13.6382C22.5443 13.6089 25.3856 13.3641 27.9171 12.9386C28.5795 15.2328 28.9513 17.7662 29.0005 20.4001ZM23.7077 26.6655C23.7077 27.0184 23.4693 27.3159 23.1452 27.4075V25.9233C23.4693 26.015 23.7077 26.3126 23.7077 26.6655ZM19.6 3.23329C21.9877 3.48831 24.2341 5.25991 25.9802 8.28893C26.593 9.35181 27.1191 10.5261 27.5528 11.7857C25.1337 12.1818 22.4189 12.4098 19.5999 12.4381V3.23329H19.6ZM19.2195 19.9817C21.2632 19.9817 22.9259 21.6445 22.9259 23.6884V24.4216C22.9219 24.4184 22.9176 24.4155 22.9136 24.4124C22.9049 24.4055 22.896 24.3988 22.8869 24.3925C22.8799 24.3876 22.8726 24.3831 22.8653 24.3785C22.8563 24.3728 22.8474 24.3672 22.8381 24.362C22.8295 24.3571 22.8207 24.3529 22.8119 24.3485C22.8036 24.3444 22.7952 24.3401 22.7866 24.3363C22.7761 24.3316 22.7652 24.3277 22.7544 24.3237C22.7469 24.3208 22.7395 24.3179 22.7319 24.3154C22.7198 24.3114 22.7074 24.3082 22.695 24.305C22.6895 24.3035 22.6841 24.3016 22.6784 24.3003C21.5387 24.0411 21.1776 22.555 21.1745 22.5421C21.1225 22.3122 20.9406 22.1341 20.7096 22.0869C20.4786 22.0394 20.2414 22.132 20.1032 22.323C18.6982 24.2655 15.5944 24.2854 15.5534 24.2854C15.5534 24.2854 15.5533 24.2854 15.5533 24.2854C15.5525 24.2854 15.5519 24.2854 15.5511 24.2854C15.5305 24.2854 15.51 24.2864 15.4899 24.2884C15.4836 24.2892 15.4775 24.2904 15.4712 24.2913C15.4576 24.2932 15.4438 24.2948 15.4304 24.2975C15.4219 24.2992 15.4136 24.3019 15.4051 24.304C15.3944 24.3067 15.3835 24.309 15.3731 24.3122C15.3634 24.3153 15.354 24.3192 15.3445 24.3227C15.3358 24.3259 15.3268 24.3287 15.3182 24.3323C15.3072 24.337 15.2967 24.3424 15.2862 24.3476C15.2794 24.3509 15.2725 24.3538 15.2658 24.3574C15.255 24.3632 15.2449 24.3699 15.2345 24.3763C15.2286 24.3801 15.2223 24.3834 15.2164 24.3873C15.2068 24.3939 15.1976 24.4011 15.1883 24.4083C15.1823 24.4128 15.176 24.417 15.1702 24.4218C15.1647 24.4263 15.1596 24.4314 15.1541 24.4362V23.6883C15.1541 21.6444 16.8168 19.9817 18.8605 19.9817H19.2195ZM8.99954 20.4C9.04875 17.7657 9.42066 15.2318 10.0832 12.9373C12.6182 13.3634 15.4626 13.6088 18.4 13.6383V18.8041C17.1422 18.9219 16.021 19.5158 15.2191 20.404C15.1973 20.4016 15.1751 20.4001 15.1526 20.4001H8.99954V20.4ZM14.9511 25.9171V27.4138C14.6147 27.3306 14.3644 27.0272 14.3644 26.6655C14.3643 26.3038 14.6147 26.0004 14.9511 25.9171ZM18.4 3.23329V12.4381C15.5877 12.4096 12.8707 12.1807 10.4478 11.7839C10.8814 10.525 11.4073 9.35144 12.0198 8.28893C13.7659 5.25991 16.0123 3.48831 18.4 3.23329ZM14.0877 3.88976C12.9434 4.82937 11.8933 6.10541 10.9801 7.68961C10.3015 8.86679 9.72429 10.1713 9.25456 11.5707C7.55487 11.239 6.03287 10.8196 4.76521 10.3251C7.06318 7.26842 10.3214 4.97276 14.0877 3.88976ZM4.05902 11.3357C5.41099 11.8882 7.05605 12.3546 8.89898 12.7207C8.22559 15.0932 7.84819 17.6987 7.79935 20.4H1.21125C1.32221 17.0671 2.35348 13.9635 4.05902 11.3357ZM7.9253 33.0418C8.04828 33.0566 8.17319 33.0651 8.30011 33.0651H8.84739C8.97416 33.0651 9.09907 33.0566 9.22198 33.0418V33.3743L8.55356 34.068L7.9253 33.4562V33.0418ZM8.84739 31.8651H8.30011C7.23989 31.8651 6.37739 31.0026 6.37739 29.9425V28.3557C7.15884 28.2711 8.54273 27.9975 9.60999 27.1062C9.84898 27.516 10.2186 27.9593 10.77 28.2181V29.9425C10.7699 31.0026 9.90746 31.8651 8.84739 31.8651ZM10.3912 25.8938C10.3392 25.6639 10.1573 25.4858 9.92624 25.4386C9.6952 25.3912 9.45799 25.4837 9.31995 25.6747C8.23264 27.1776 5.80866 27.1941 5.77941 27.1941C5.77867 27.1941 5.77808 27.1941 5.77741 27.1941C5.75678 27.1941 5.73629 27.1951 5.71618 27.1971C5.70987 27.1979 5.70378 27.1991 5.69748 27.2C5.68389 27.2018 5.67009 27.2035 5.65673 27.2062C5.6482 27.208 5.63988 27.2106 5.63135 27.2127C5.62066 27.2154 5.60982 27.2178 5.59936 27.2209C5.5929 27.2229 5.58682 27.2257 5.58043 27.2279V26.8369C5.58043 25.2689 6.85596 23.9933 8.4239 23.9933H8.71091C10.2788 23.9933 11.5542 25.2689 11.5542 26.8369V27.2231H11.554C11.5425 27.2193 11.5306 27.2165 11.5188 27.2134C11.5136 27.2121 11.5084 27.2103 11.5031 27.209C10.6668 27.0188 10.3932 25.9022 10.3912 25.8938ZM1.21118 21.6H7.7992C7.8067 22.0132 7.82266 22.426 7.84544 22.8354C5.88896 23.1167 4.38024 24.8036 4.38024 26.8368V27.8985C3.99542 28.2099 3.74864 28.6852 3.74864 29.2174C3.74864 30.1143 4.44875 30.849 5.33098 30.9085C5.56967 31.6404 6.07184 32.2539 6.72526 32.6372V32.9751L6.06983 33.2318C3.06687 30.0588 1.35546 25.9524 1.21118 21.6ZM5.17728 28.7999V29.635C5.03997 29.5465 4.94861 29.3926 4.94861 29.2176C4.94861 29.0424 5.03997 28.8885 5.17728 28.7999ZM11.0981 36.7105V38.8H10.3949H7.32517H6.68518H6.14798H3.29657V37.2495C3.29657 35.5767 4.60431 35.0919 4.65515 35.0739C4.66443 35.0708 4.6737 35.0674 4.68283 35.0638L6.94584 34.1775L8.14833 35.3487C8.2604 35.4579 8.41062 35.5189 8.56692 35.5189C8.57004 35.5189 8.57323 35.5189 8.57642 35.5188C8.73607 35.5164 8.88822 35.4502 8.99887 35.3352L10.1347 34.1565L11.5387 34.7194C11.2725 35.2643 11.0981 35.9241 11.0981 36.7105ZM16.887 31.4675L13.7024 32.7146C13.2969 32.8541 12.7356 33.176 12.2378 33.7068L10.4219 32.9786V32.6374C11.0757 32.2539 11.578 31.6399 11.8167 30.9075C12.6896 30.8385 13.3792 30.1077 13.3792 29.2174C13.3792 28.6879 13.1351 28.2147 12.754 27.9032V26.8368C12.754 24.7201 11.1189 22.9793 9.04578 22.8083C9.02292 22.408 9.00711 22.0043 8.99947 21.5999H14.4219C14.1223 22.234 13.954 22.9416 13.954 23.6882V25.0883C13.4748 25.4483 13.1642 26.0212 13.1642 26.6655C13.1642 27.7424 14.0323 28.62 15.1055 28.6364C15.3871 29.5875 16.0357 30.3821 16.8868 30.8555V31.4675H16.887ZM11.9699 29.6218V28.813C12.0963 28.9033 12.1792 29.0507 12.1792 29.2175C12.1792 29.3843 12.0963 29.5317 11.9699 29.6218ZM20.0095 31.8863C20.0095 31.8871 20.0095 31.8879 20.0095 31.8885V31.9249L19.0263 32.945L18.087 32.03V31.2751C18.2885 31.3087 18.4951 31.327 18.7061 31.327H19.3905C19.6014 31.327 19.8079 31.3087 20.0095 31.2752V31.8863ZM19.3905 30.1271H18.7061C17.2973 30.1271 16.1511 28.981 16.1511 27.5722V25.4539C17.1087 25.3657 19.0022 25.0328 20.3852 23.7912C20.6771 24.3436 21.1664 24.985 21.9453 25.3176V27.5721C21.9452 28.981 20.7992 30.1271 19.3905 30.1271ZM25.7787 33.7109C25.2809 33.1788 24.719 32.8558 24.3126 32.7155L21.2093 31.4709V30.8555C22.0607 30.382 22.7092 29.5872 22.9907 28.6358C24.0525 28.6065 24.9075 27.7342 24.9075 26.6656C24.9075 26.025 24.6003 25.455 24.1257 25.0946V23.6883C24.1257 22.9418 23.9574 22.234 23.6578 21.6H29.0003C28.9925 22.006 28.9766 22.4113 28.9535 22.8135C26.912 23.0161 25.3123 24.7431 25.3123 26.8368V27.8986C24.9276 28.21 24.6809 28.6853 24.6809 29.2175C24.6809 30.1144 25.381 30.8491 26.2632 30.9086C26.5019 31.6405 27.0041 32.254 27.6575 32.6373V32.9752L25.7787 33.7109ZM26.1098 28.7999V29.635C25.9724 29.5465 25.8811 29.3926 25.8811 29.2176C25.8811 29.0424 25.9725 28.8884 26.1098 28.7999ZM34.7163 38.8H31.3274H28.2577H27.6176H27.0804H26.9148V36.7104C26.9148 35.9272 26.7419 35.2696 26.4774 34.7261L27.8783 34.1775L29.0807 35.3486C29.1928 35.4578 29.343 35.5189 29.4994 35.5189C29.5025 35.5189 29.5057 35.5189 29.5088 35.5188C29.6684 35.5164 29.8206 35.4502 29.9313 35.3352L31.0672 34.1565L33.3254 35.0619C33.3359 35.0662 33.3418 35.0685 33.3527 35.0722C33.4084 35.0919 34.7164 35.5768 34.7164 37.2496V38.8H34.7163Z" fill="#2DB398"/>
<circle opacity="0.1" cx="21.5" cy="18.5" r="18.5" fill="#2DB398"/>
</svg>
