<svg width="40" height="40" viewBox="0 0 40 40" fill="none" xmlns="http://www.w3.org/2000/svg">
<rect opacity="0.1" x="4" width="36" height="36" rx="2" fill="#2DB398"/>
<path d="M32.1576 4.4043H15.9721C15.5415 4.4043 15.1924 4.75352 15.1924 5.18406C15.1924 5.61469 15.5416 5.96383 15.9721 5.96383H32.1576C32.5882 5.96383 32.9374 5.61461 32.9374 5.18406C32.9374 4.75352 32.5882 4.4043 32.1576 4.4043Z" fill="#2DB398"/>
<path d="M8.06547 4.63273C7.92039 4.48766 7.7193 4.4043 7.51414 4.4043C7.30906 4.4043 7.10789 4.48766 6.96289 4.63273C6.81781 4.77781 6.73438 4.9782 6.73438 5.18406C6.73438 5.38914 6.81781 5.59031 6.96289 5.73531C7.10781 5.88039 7.30906 5.96383 7.51414 5.96383C7.7193 5.96383 7.92039 5.88039 8.06547 5.73531C8.21055 5.59039 8.29391 5.38914 8.29391 5.18406C8.29391 4.97891 8.21055 4.77773 8.06547 4.63273Z" fill="#2DB398"/>
<path d="M5.19926 4.63273C5.05418 4.48766 4.85309 4.4043 4.64793 4.4043C4.44285 4.4043 4.24168 4.48766 4.09668 4.63273C3.9516 4.77781 3.86816 4.97898 3.86816 5.18406C3.86816 5.38914 3.9516 5.59031 4.09668 5.73531C4.2416 5.88039 4.44285 5.96383 4.64793 5.96383C4.85309 5.96383 5.05418 5.88039 5.19926 5.73531C5.34434 5.59039 5.4277 5.38914 5.4277 5.18406C5.42777 4.97891 5.34441 4.77773 5.19926 4.63273Z" fill="#2DB398"/>
<path d="M10.9305 4.63273C10.7847 4.48766 10.5843 4.4043 10.3784 4.4043C10.1733 4.4043 9.97293 4.48766 9.82715 4.63273C9.68215 4.77781 9.59863 4.97898 9.59863 5.18406C9.59863 5.38914 9.68207 5.59031 9.82715 5.73531C9.97285 5.88039 10.1733 5.96383 10.3784 5.96383C10.5843 5.96383 10.7846 5.88039 10.9305 5.73531C11.0756 5.59039 11.1582 5.38914 11.1582 5.18406C11.1582 4.97891 11.0756 4.77773 10.9305 4.63273Z" fill="#2DB398"/>
<path d="M39.7716 34.075L33.633 27.9364L34.596 26.9733C34.5963 26.9731 34.5966 26.9729 34.5968 26.9726C34.597 26.9724 34.5973 26.9721 34.5975 26.9719L35.5603 26.009L38.5929 29.0417C38.8975 29.3461 39.3911 29.3461 39.6957 29.0417C40.0002 28.7372 40.0002 28.2434 39.6957 27.9389L36.1118 24.355C35.8073 24.0506 35.3137 24.0504 35.009 24.355L34.0454 25.3185L33.5786 24.8517C34.9194 23.2621 35.7287 21.2103 35.7287 18.9728C35.7287 13.9376 31.6322 9.84107 26.597 9.84107C24.0029 9.84107 21.658 10.9284 19.9941 12.6712C19.9867 12.6709 19.9796 12.6701 19.9723 12.6701H4.99055C4.55992 12.6701 4.21078 13.0193 4.21078 13.4498V24.3667C4.21078 24.7973 4.56 25.1465 4.99055 25.1465H19.8745C21.5448 26.9637 23.94 28.1046 26.5969 28.1046C28.8344 28.1046 30.886 27.2952 32.4758 25.9545L32.9426 26.4213L31.9788 27.3851C31.8326 27.5313 31.7504 27.7297 31.7504 27.9365C31.7504 28.1433 31.8326 28.3416 31.9788 28.4879L35.2459 31.7551V35.1276C35.2459 36.0736 34.4763 36.8431 33.5304 36.8431H3.27508C2.32914 36.8431 1.55961 36.0736 1.55961 35.1276V8.77068C1.5625 8.77068 1.56531 8.77115 1.56813 8.77115H35.2459V12.2858C35.2459 12.7165 35.5952 13.0656 36.0257 13.0656C36.4562 13.0656 36.8055 12.7164 36.8055 12.2858V4.87225C36.8055 3.06639 35.3363 1.59717 33.5304 1.59717H3.27508C1.46914 1.59717 0 3.06639 0 4.87225V35.1276C0 36.9334 1.46914 38.4026 3.27508 38.4026H33.5304C35.3363 38.4026 36.8055 36.9335 36.8055 35.1276V33.3144L38.6688 35.1778C38.8211 35.33 39.0206 35.4062 39.2202 35.4062C39.4198 35.4062 39.6193 35.33 39.7716 35.1778C40.0761 34.8733 40.0761 34.3795 39.7716 34.075ZM17.4681 19.2101L16.4855 17.3119C16.2875 16.9294 15.8168 16.78 15.4344 16.9779C15.052 17.1759 14.9024 17.6465 15.1004 18.029L16.9315 21.5662C17.0702 21.834 17.3425 21.9876 17.6246 21.9876C17.7345 21.9876 17.8456 21.963 17.9511 21.9141C18.1512 22.5008 18.4098 23.0604 18.7194 23.5869H5.77031V14.2295H18.7963C17.952 15.6129 17.4651 17.2369 17.4651 18.9727C17.4651 19.0522 17.4661 19.1313 17.4681 19.2101ZM26.5969 26.5448C22.4216 26.5448 19.0247 23.148 19.0247 18.9727C19.0247 18.9133 19.0255 18.854 19.027 18.7949L20.4614 21.566C20.5955 21.8251 20.8627 21.9873 21.1538 21.9873C21.1577 21.9873 21.1617 21.9873 21.1655 21.9872C21.4612 21.9828 21.7288 21.8116 21.8568 21.5451L23.5556 18.008C23.742 17.6197 23.5784 17.154 23.1902 16.9675C22.8023 16.7811 22.3362 16.9447 22.1497 17.3329L21.1277 19.4609L20.0153 17.312C19.8755 17.0421 19.6 16.8889 19.3156 16.8912C20.2222 13.7248 23.1431 11.4005 26.5969 11.4005C30.7722 11.4005 34.1691 14.7975 34.1691 18.9727C34.1691 23.1479 30.7721 26.5448 26.5969 26.5448ZM1.55953 4.87225C1.55953 3.92631 2.32906 3.15678 3.275 3.15678H33.5303C34.4762 3.15678 35.2458 3.92631 35.2458 4.87225V7.21154H1.56805C1.56516 7.21154 1.56234 7.21193 1.55953 7.21201V4.87225Z" fill="#2DB398"/>
<path d="M14.2563 16.9678C13.8684 16.7815 13.4023 16.945 13.2158 17.3332L12.1938 19.4611L11.0814 17.3122C10.9455 17.0496 10.674 16.8857 10.3772 16.891C10.0816 16.8954 9.81397 17.0666 9.686 17.3331L8.66404 19.461L7.55162 17.3121C7.35365 16.9296 6.88279 16.7801 6.5006 16.9781C6.1181 17.176 5.96857 17.6466 6.16654 18.0291L7.99756 21.5662C8.1335 21.8289 8.40709 21.992 8.7017 21.9875C8.99732 21.983 9.26498 21.8118 9.39295 21.5453L10.4149 19.4173L11.5273 21.5662C11.6615 21.8253 11.9287 21.9875 12.2197 21.9875C12.2237 21.9875 12.2276 21.9875 12.2315 21.9875C12.5271 21.983 12.7947 21.8118 12.9227 21.5453L14.6215 18.0082C14.8081 17.6201 14.6446 17.1543 14.2563 16.9678Z" fill="#2DB398"/>
<path d="M32.1245 16.9677C31.7362 16.7814 31.2705 16.9448 31.0839 17.3331L30.062 19.461L28.9495 17.312C28.8137 17.0495 28.5388 16.8873 28.2454 16.8909C27.9498 16.8953 27.6821 17.0665 27.5542 17.333L26.5322 19.461L25.4198 17.312C25.2218 16.9297 24.7514 16.7801 24.3687 16.9781C23.9863 17.176 23.8367 17.6466 24.0347 18.0291L25.8658 21.5663C25.9999 21.8252 26.2671 21.9875 26.5582 21.9875C26.5622 21.9875 26.5661 21.9875 26.5699 21.9874C26.8656 21.983 27.1332 21.8118 27.2612 21.5453L28.2831 19.4173L29.3956 21.5663C29.5297 21.8253 29.7969 21.9876 30.088 21.9876C30.092 21.9876 30.0959 21.9876 30.0997 21.9875C30.3953 21.9831 30.663 21.8119 30.791 21.5454L32.4897 18.0083C32.6762 17.62 32.5126 17.1542 32.1245 16.9677Z" fill="#2DB398"/>
<path d="M5.54195 31.3012C5.39703 31.1554 5.19578 31.0728 4.9907 31.0728C4.78562 31.0728 4.58445 31.1554 4.43937 31.3012C4.2943 31.4463 4.21094 31.6474 4.21094 31.8525C4.21094 32.0576 4.2943 32.2588 4.43937 32.4038C4.58445 32.5488 4.78562 32.6323 4.9907 32.6323C5.19578 32.6323 5.39695 32.5488 5.54195 32.4038C5.68703 32.2588 5.77047 32.0576 5.77047 31.8525C5.77047 31.6474 5.68703 31.4463 5.54195 31.3012Z" fill="#2DB398"/>
<path d="M22.8525 31.0737H7.66746C7.23684 31.0737 6.8877 31.4229 6.8877 31.8535C6.8877 32.2841 7.23691 32.6333 7.66746 32.6333H22.8524C23.283 32.6333 23.6322 32.284 23.6322 31.8535C23.6322 31.4229 23.2831 31.0737 22.8525 31.0737Z" fill="#2DB398"/>
<path d="M19.9625 27.3301H15.3618C14.9312 27.3301 14.582 27.6793 14.582 28.1098C14.582 28.5405 14.9313 28.8896 15.3618 28.8896H19.9625C20.3931 28.8896 20.7423 28.5404 20.7423 28.1098C20.7423 27.6793 20.3931 27.3301 19.9625 27.3301Z" fill="#2DB398"/>
<path d="M11.8598 27.3301H4.9907C4.56008 27.3301 4.21094 27.6793 4.21094 28.1098C4.21094 28.5405 4.56016 28.8896 4.9907 28.8896H11.8598C12.2905 28.8896 12.6396 28.5404 12.6396 28.1098C12.6396 27.6793 12.2905 27.3301 11.8598 27.3301Z" fill="#2DB398"/>
</svg>
